<?xml version="1.0" standalone="no"?><!DOCTYPE svg PUBLIC "-//W3C//DTD SVG 1.1//EN" "http://www.w3.org/Graphics/SVG/1.1/DTD/svg11.dtd"><svg t="1767009337488" class="icon" viewBox="0 0 1025 1024" version="1.1" xmlns="http://www.w3.org/2000/svg" p-id="5859" xmlns:xlink="http://www.w3.org/1999/xlink" width="200.1953125" height="200"><path d="M1023.236285 622.519824L430.038048 748.828194c-15.788546 49.621145-13.53304 99.242291 4.511013 148.863436L1016.469766 760.105727l9.022026 38.343612L430.038048 938.290749l-18.044053-2.255507L19.535845 681.162996c-22.555066-51.876652-29.321586-103.753304 0-157.885463l38.343612-6.76652v13.53304l500.722467 117.286343c6.76652-18.044053 11.277533-36.088106 11.277533-56.387665 0-20.299559-2.255507-42.854626-9.022026-65.409691L55.623951 417.268722l4.511013-36.088105h2.255506l31.577093-9.022027V338.325991l466.889868 117.286344c6.76652-15.788546 11.277533-33.832599 11.277533-51.876652 0-20.299559-2.255507-40.599119-6.76652-60.898679L93.967563 234.572687V184.951542l369.903084-99.242291 428.546255 92.475771c22.555066 42.854626 18.044053 85.709251 0 126.30837l-31.577092 18.044053 56.387665 9.022026c24.810573 45.110132 18.044053 90.220264 0 135.330397l-94.731278 60.898678 200.740088 56.387665v38.343613z m-563.876652 221.039647l2.255507 9.022027 539.066079-117.286344-2.255506-9.022026-539.06608 117.286343z m0-38.343612l2.255507 9.022026 539.066079-117.286343-2.255506-9.022027-539.06608 117.286344z m-2.255506-33.832599l2.255506 11.277533 539.06608-117.286344-2.255507-11.277533-539.066079 117.286344z" p-id="5860" fill="#1afa29"></path></svg>